White Collar - Upper West Side Story - S03E12

Releaser:
r3mnants

Format : MPEG-4
Format profile : Base Media
Codec ID : isom
File size : 588 MiB
Duration : 42mn 8s
Overall bit rate mode : Variable
Overall bit rate : 1 949 Kbps
Writing application : Lavf50.4.0

Video
ID : 1
Format : AVC
Format/Info : Advanced Video Codec
Format profile : Main@L2.1
Format settings, CABAC : Yes
Format settings, ReFrames : 2 frames
Codec ID : avc1
Codec ID/Info : Advanced Video Coding
Duration : 42mn 8s
Bit rate : 1 814 Kbps
Width : 1024 pixels
Height : 576 pixels
Display aspect ratio : 16:9
Frame rate mode : Constant
Frame rate : 29.970 fps
Color space : YUV
Chroma subsampling : 4:2:0
Bit depth : 8 bits
Scan type : Progressive
Bits/(Pixel*Frame) : 0.103
Stream size : 547 MiB (93%)

Audio
ID : 2
Format : AAC
Format/Info : Advanced Audio Codec
Format profile : LC
Codec ID : 40
Duration : 42mn 8s
Bit rate mode : Variable
Bit rate : 128 Kbps
Channel(s) : 2 channels
Channel positions : Front: L R
Sampling rate : 48.0 KHz
Compression mode : Lossy
Stream size : 38.6 MiB (7%)